<?xml version="1.0" encoding="UTF-8"?>
<svg version="1.1" xmlns="http://www.w3.org/2000/svg" width="512" height="512">
<path d="M0 0 C1.40251469 -0.00417941 2.80502599 -0.00966025 4.20753109 -0.01631981 C8.03837352 -0.0307136 11.8689997 -0.02654883 15.69985366 -0.019153 C19.84038902 -0.01440851 23.98087845 -0.02694248 28.12139893 -0.03717041 C36.22410715 -0.05433881 44.32673775 -0.05520248 52.42945944 -0.04995751 C59.01760828 -0.04591086 65.60573424 -0.04736524 72.19388199 -0.05270576 C73.60208686 -0.0538284 73.60208686 -0.0538284 75.03874031 -0.05497371 C76.9461162 -0.05650524 78.85349209 -0.05804359 80.76086797 -0.05958868 C98.63524049 -0.07330668 116.5095692 -0.06788099 134.38394071 -0.05640347 C150.72262064 -0.04647222 167.0611873 -0.05941112 183.39984976 -0.08333766 C200.19222034 -0.1077426 216.9845382 -0.11733307 233.77692616 -0.11068493 C243.19824017 -0.10719576 252.6194671 -0.10940479 262.04076767 -0.12693596 C270.06100686 -0.14167539 278.08109763 -0.14227066 286.10133396 -0.12486505 C290.18997103 -0.11636692 294.27834317 -0.11417623 298.36696625 -0.1295166 C302.11632495 -0.14340943 305.8651929 -0.13854229 309.61452354 -0.11927737 C311.59944856 -0.11376841 313.58439886 -0.12775047 315.56927574 -0.14263147 C330.20069446 -0.02317438 341.05626763 4.80602234 351.7204895 14.70018005 C361.08366737 24.59334912 364.4405478 36.02513688 364.35816956 49.38008118 C364.36624786 50.97278279 364.36624786 50.97278279 364.37448937 52.59766018 C364.38872024 56.13179092 364.38167709 59.66554453 364.37454224 63.19969177 C364.38024834 65.7432434 364.38721353 68.28679247 364.39533997 70.83033752 C364.41140126 77.00798799 364.41337731 83.18550074 364.40812706 89.36316572 C364.40407561 94.38762494 364.40554046 99.41205419 364.41087532 104.43651199 C364.41162374 105.15328634 364.41237216 105.87006069 364.41314327 106.60855547 C364.41467484 108.06497136 364.41621319 109.52138725 364.41775823 110.97780313 C364.43146717 124.61737043 364.42605699 138.25688027 364.41457302 151.89644624 C364.40464318 164.35522388 364.41757982 176.81385295 364.44150721 189.27260767 C364.46593148 202.08733826 364.47549787 214.90199974 364.46885449 227.71675313 C364.46536953 234.90242339 364.46754624 242.08797947 364.48510551 249.27363205 C364.50141722 256.03217691 364.49659426 262.79039366 364.47780037 269.54894638 C364.4741206 272.02402696 364.47720498 274.49912863 364.48768616 276.97418976 C364.56261035 296.13545178 363.21182729 309.52894451 349.6579895 324.13768005 C338.68761844 334.52035266 326.58926205 336.84383884 311.940979 336.77536011 C310.53846432 336.77953952 309.13595301 336.78502036 307.73344791 336.79167992 C303.90260548 336.8060737 300.07197931 336.80190894 296.24112535 336.79451311 C292.10058999 336.78976862 287.96010055 336.80230259 283.81958008 336.81253052 C275.71687186 336.82969892 267.61424125 336.83056258 259.51151957 336.82531761 C252.92337073 336.82127096 246.33524477 336.82272535 239.74709702 336.82806587 C238.33889214 336.82918851 238.33889214 336.82918851 236.90223869 336.83033382 C234.9948628 336.83186535 233.08748691 336.83340369 231.18011104 336.83494879 C213.30573852 336.84866679 195.43140981 336.8432411 177.55703829 336.83176357 C161.21835837 336.82183233 144.8797917 336.83477123 128.54112925 336.85869776 C111.74875866 336.88310271 94.9564408 336.89269318 78.16405284 336.88604504 C68.74273883 336.88255587 59.3215119 336.8847649 49.90021133 336.90229607 C41.87997215 336.9170355 33.85988137 336.91763077 25.83964504 336.90022516 C21.75100798 336.89172703 17.66263584 336.88953634 13.57401276 336.90487671 C9.82465406 336.91876954 6.0757861 336.9139024 2.32645546 336.89463747 C0.34153044 336.88912852 -1.64341985 336.90311057 -3.62829673 336.91799158 C-18.25971546 336.79853449 -29.11528862 331.96933777 -39.7795105 322.07518005 C-49.14268837 312.18201098 -52.4995688 300.75022322 -52.41719055 287.39527893 C-52.42257609 286.33347786 -52.42796163 285.27167679 -52.43351036 284.17769992 C-52.44774123 280.64356918 -52.44069808 277.10981558 -52.43356323 273.57566833 C-52.43926934 271.0321167 -52.44623453 268.48856763 -52.45436096 265.94502258 C-52.47042226 259.76737212 -52.4723983 253.58985937 -52.46714806 247.41219439 C-52.46309661 242.38773516 -52.46456146 237.36330592 -52.46989632 232.33884811 C-52.47101895 231.26368659 -52.47101895 231.26368659 -52.47216426 230.16680463 C-52.47369584 228.71038874 -52.47523418 227.25397286 -52.47677923 225.79755698 C-52.49048817 212.15798968 -52.48507799 198.51847984 -52.47359402 184.87891386 C-52.46366417 172.42013623 -52.47660082 159.96150716 -52.50052821 147.50275244 C-52.52495248 134.68802185 -52.53451887 121.87336036 -52.52787548 109.05860698 C-52.52439053 101.87293672 -52.52656724 94.68738064 -52.54412651 87.50172806 C-52.56043821 80.7431832 -52.55561526 73.98496645 -52.53682137 67.22641373 C-52.5331416 64.75133314 -52.53622597 62.27623148 -52.54670715 59.80117035 C-52.62163135 40.63990833 -51.27084829 27.24641559 -37.7170105 12.63768005 C-26.74663944 2.25500745 -14.64828304 -0.06847873 0 0 Z " fill="#343031" transform="translate(100.02951049804688,87.61231994628906)"/>
<path d="M0 0 C1.40251469 -0.00417941 2.80502599 -0.00966025 4.20753109 -0.01631981 C8.03837352 -0.0307136 11.8689997 -0.02654883 15.69985366 -0.019153 C19.84038902 -0.01440851 23.98087845 -0.02694248 28.12139893 -0.03717041 C36.22410715 -0.05433881 44.32673775 -0.05520248 52.42945944 -0.04995751 C59.01760828 -0.04591086 65.60573424 -0.04736524 72.19388199 -0.05270576 C73.60208686 -0.0538284 73.60208686 -0.0538284 75.03874031 -0.05497371 C76.9461162 -0.05650524 78.85349209 -0.05804359 80.76086797 -0.05958868 C98.63524049 -0.07330668 116.5095692 -0.06788099 134.38394071 -0.05640347 C150.72262064 -0.04647222 167.0611873 -0.05941112 183.39984976 -0.08333766 C200.19222034 -0.1077426 216.9845382 -0.11733307 233.77692616 -0.11068493 C243.19824017 -0.10719576 252.6194671 -0.10940479 262.04076767 -0.12693596 C270.06100686 -0.14167539 278.08109763 -0.14227066 286.10133396 -0.12486505 C290.18997103 -0.11636692 294.27834317 -0.11417623 298.36696625 -0.1295166 C302.11632495 -0.14340943 305.8651929 -0.13854229 309.61452354 -0.11927737 C311.59944856 -0.11376841 313.58439886 -0.12775047 315.56927574 -0.14263147 C330.20069446 -0.02317438 341.05626763 4.80602234 351.7204895 14.70018005 C361.08366737 24.59334912 364.4405478 36.02513688 364.35816956 49.38008118 C364.36624786 50.97278279 364.36624786 50.97278279 364.37448937 52.59766018 C364.38872024 56.13179092 364.38167709 59.66554453 364.37454224 63.19969177 C364.38024834 65.7432434 364.38721353 68.28679247 364.39533997 70.83033752 C364.41140126 77.00798799 364.41337731 83.18550074 364.40812706 89.36316572 C364.40407561 94.38762494 364.40554046 99.41205419 364.41087532 104.43651199 C364.41162374 105.15328634 364.41237216 105.87006069 364.41314327 106.60855547 C364.41467484 108.06497136 364.41621319 109.52138725 364.41775823 110.97780313 C364.43146717 124.61737043 364.42605699 138.25688027 364.41457302 151.89644624 C364.40464318 164.35522388 364.41757982 176.81385295 364.44150721 189.27260767 C364.46593148 202.08733826 364.47549787 214.90199974 364.46885449 227.71675313 C364.46536953 234.90242339 364.46754624 242.08797947 364.48510551 249.27363205 C364.50141722 256.03217691 364.49659426 262.79039366 364.47780037 269.54894638 C364.4741206 272.02402696 364.47720498 274.49912863 364.48768616 276.97418976 C364.56261035 296.13545178 363.21182729 309.52894451 349.6579895 324.13768005 C338.68761844 334.52035266 326.58926205 336.84383884 311.940979 336.77536011 C310.53846432 336.77953952 309.13595301 336.78502036 307.73344791 336.79167992 C303.90260548 336.8060737 300.07197931 336.80190894 296.24112535 336.79451311 C292.10058999 336.78976862 287.96010055 336.80230259 283.81958008 336.81253052 C275.71687186 336.82969892 267.61424125 336.83056258 259.51151957 336.82531761 C252.92337073 336.82127096 246.33524477 336.82272535 239.74709702 336.82806587 C238.33889214 336.82918851 238.33889214 336.82918851 236.90223869 336.83033382 C234.9948628 336.83186535 233.08748691 336.83340369 231.18011104 336.83494879 C213.30573852 336.84866679 195.43140981 336.8432411 177.55703829 336.83176357 C161.21835837 336.82183233 144.8797917 336.83477123 128.54112925 336.85869776 C111.74875866 336.88310271 94.9564408 336.89269318 78.16405284 336.88604504 C68.74273883 336.88255587 59.3215119 336.8847649 49.90021133 336.90229607 C41.87997215 336.9170355 33.85988137 336.91763077 25.83964504 336.90022516 C21.75100798 336.89172703 17.66263584 336.88953634 13.57401276 336.90487671 C9.82465406 336.91876954 6.0757861 336.9139024 2.32645546 336.89463747 C0.34153044 336.88912852 -1.64341985 336.90311057 -3.62829673 336.91799158 C-18.25971546 336.79853449 -29.11528862 331.96933777 -39.7795105 322.07518005 C-49.14268837 312.18201098 -52.4995688 300.75022322 -52.41719055 287.39527893 C-52.42257609 286.33347786 -52.42796163 285.27167679 -52.43351036 284.17769992 C-52.44774123 280.64356918 -52.44069808 277.10981558 -52.43356323 273.57566833 C-52.43926934 271.0321167 -52.44623453 268.48856763 -52.45436096 265.94502258 C-52.47042226 259.76737212 -52.4723983 253.58985937 -52.46714806 247.41219439 C-52.46309661 242.38773516 -52.46456146 237.36330592 -52.46989632 232.33884811 C-52.47101895 231.26368659 -52.47101895 231.26368659 -52.47216426 230.16680463 C-52.47369584 228.71038874 -52.47523418 227.25397286 -52.47677923 225.79755698 C-52.49048817 212.15798968 -52.48507799 198.51847984 -52.47359402 184.87891386 C-52.46366417 172.42013623 -52.47660082 159.96150716 -52.50052821 147.50275244 C-52.52495248 134.68802185 -52.53451887 121.87336036 -52.52787548 109.05860698 C-52.52439053 101.87293672 -52.52656724 94.68738064 -52.54412651 87.50172806 C-52.56043821 80.7431832 -52.55561526 73.98496645 -52.53682137 67.22641373 C-52.5331416 64.75133314 -52.53622597 62.27623148 -52.54670715 59.80117035 C-52.62163135 40.63990833 -51.27084829 27.24641559 -37.7170105 12.63768005 C-26.74663944 2.25500745 -14.64828304 -0.06847873 0 0 Z M-28.0295105 120.38768005 C-44.57206558 219.71445691 -44.57206558 219.71445691 -21.91622925 304.9462738 C-21.19048706 305.56631287 -20.46474487 306.18635193 -19.7170105 306.82518005 C-18.99900269 307.46326599 -18.28099487 308.10135193 -17.54122925 308.7587738 C-10.53031776 313.305508 -2.78247656 312.67496887 5.28651428 312.65510559 C6.64804081 312.658845 8.00956518 312.66344768 9.37108618 312.66883624 C13.10236995 312.68104537 16.83356391 312.68080825 20.56486309 312.67844748 C24.59289289 312.6780388 28.6208941 312.68908326 32.64891052 312.69856262 C40.536105 312.71516118 48.42326957 312.72067161 56.31048005 312.72178738 C62.72138578 312.72273821 69.13228166 312.72685028 75.54318428 312.73318863 C93.72269131 312.75079644 111.90217474 312.760028 130.08169036 312.75852768 C131.06133929 312.75844777 132.04098822 312.75836786 133.05032349 312.75828552 C134.52159231 312.75816288 134.52159231 312.75816288 136.02258373 312.75803776 C151.92442994 312.75722457 167.82618151 312.77637182 183.72800034 312.80456226 C200.05920654 312.83328536 216.39036657 312.84710293 232.72159868 312.8453747 C241.88909025 312.8447107 251.05648253 312.85020797 260.22395134 312.8717308 C268.02771231 312.88993485 275.83132897 312.8942962 283.63510197 312.88071196 C287.61589156 312.87417889 291.59640421 312.87407722 295.57716751 312.89141846 C299.22342642 312.90713913 302.86918857 312.90429633 306.51543529 312.88685019 C308.45475361 312.88232604 310.39408728 312.89744539 312.33334583 312.91332948 C320.58880279 312.84793613 326.08868576 311.83201068 332.431427 306.2040863 C333.06306763 305.46029724 333.69470825 304.71650818 334.3454895 303.95018005 C335.31615356 302.83836365 335.31615356 302.83836365 336.306427 301.7040863 C371.57594955 252.60824857 339.9704895 180.83882151 339.9704895 120.38768005 C218.5304895 120.38768005 97.0904895 120.38768005 -28.0295105 120.38768005 Z " fill="#221E20" transform="translate(100.02951049804688,87.61231994628906)"/>
<path d="M0 0 C1.15679219 -0.00706559 2.31358438 -0.01413118 3.50543088 -0.02141088 C4.77194936 -0.0189958 6.03846784 -0.01658071 7.34336567 -0.01409245 C8.70586593 -0.01854571 10.0683636 -0.02386004 11.43085748 -0.02996117 C15.17419551 -0.04414127 18.9174505 -0.04580446 22.66081154 -0.04536426 C26.6984616 -0.04701248 30.73607744 -0.06007913 34.7737093 -0.07155704 C43.602315 -0.09440645 52.43089666 -0.10232768 61.25952792 -0.10738349 C66.77321878 -0.11064075 72.28690265 -0.11716344 77.80058956 -0.12438488 C93.06939151 -0.14395118 108.33818697 -0.16035506 123.60700226 -0.16326141 C124.58409036 -0.16344898 125.56117846 -0.16363655 126.56787528 -0.16382981 C128.54863791 -0.16419606 130.52940053 -0.16455975 132.51016315 -0.16492092 C133.98502508 -0.16519514 133.98502508 -0.16519514 135.4896822 -0.16547489 C136.47412508 -0.16565544 137.45856795 -0.16583599 138.47284243 -0.16602201 C154.42198357 -0.16956315 170.37098964 -0.19658163 186.32008394 -0.23397278 C202.69869749 -0.27206328 219.07724404 -0.29141895 235.45590287 -0.29172093 C244.65034264 -0.29230535 253.84462131 -0.30078755 263.03901958 -0.32971859 C270.86877613 -0.35424247 278.69831284 -0.36150864 286.52809741 -0.34647106 C290.52133235 -0.33930608 294.51413328 -0.34014136 298.50731945 -0.36288166 C302.16742095 -0.38352495 305.82675626 -0.38082244 309.48684994 -0.36000682 C311.42877447 -0.35487889 313.37071676 -0.37425054 315.31254071 -0.39466852 C324.17444883 -0.30991037 330.84178605 1.53566677 337.68084431 7.32256222 C338.45428181 8.28162472 338.45428181 8.28162472 339.24334431 9.26006222 C340.04771931 10.21912472 340.04771931 10.21912472 340.86834431 11.19756222 C355.13086411 32.59134192 344.24334431 62.54793898 344.24334431 88.26006222 C222.80334431 88.26006222 101.36334431 88.26006222 -23.75665569 88.26006222 C-23.75665569 14.76811231 -23.75665569 14.76811231 -17.57306194 7.79912472 C-16.45737835 6.85166378 -16.45737835 6.85166378 -15.31915569 5.88506222 C-14.57794476 5.23795284 -13.83673382 4.59084347 -13.07306194 3.92412472 C-8.82834865 0.87480286 -5.18650497 0.01013692 0 0 Z " fill="#1C75BC" transform="translate(95.7566556930542,111.7399377822876)"/>
<path d="M0 0 C1.15679219 -0.00706559 2.31358438 -0.01413118 3.50543088 -0.02141088 C4.77194936 -0.0189958 6.03846784 -0.01658071 7.34336567 -0.01409245 C8.70586593 -0.01854571 10.0683636 -0.02386004 11.43085748 -0.02996117 C15.17419551 -0.04414127 18.9174505 -0.04580446 22.66081154 -0.04536426 C26.6984616 -0.04701248 30.73607744 -0.06007913 34.7737093 -0.07155704 C43.602315 -0.09440645 52.43089666 -0.10232768 61.25952792 -0.10738349 C66.77321878 -0.11064075 72.28690265 -0.11716344 77.80058956 -0.12438488 C93.06939151 -0.14395118 108.33818697 -0.16035506 123.60700226 -0.16326141 C124.58409036 -0.16344898 125.56117846 -0.16363655 126.56787528 -0.16382981 C128.54863791 -0.16419606 130.52940053 -0.16455975 132.51016315 -0.16492092 C133.98502508 -0.16519514 133.98502508 -0.16519514 135.4896822 -0.16547489 C136.47412508 -0.16565544 137.45856795 -0.16583599 138.47284243 -0.16602201 C154.42198357 -0.16956315 170.37098964 -0.19658163 186.32008394 -0.23397278 C202.69869749 -0.27206328 219.07724404 -0.29141895 235.45590287 -0.29172093 C244.65034264 -0.29230535 253.84462131 -0.30078755 263.03901958 -0.32971859 C270.86877613 -0.35424247 278.69831284 -0.36150864 286.52809741 -0.34647106 C290.52133235 -0.33930608 294.51413328 -0.34014136 298.50731945 -0.36288166 C302.16742095 -0.38352495 305.82675626 -0.38082244 309.48684994 -0.36000682 C311.42877447 -0.35487889 313.37071676 -0.37425054 315.31254071 -0.39466852 C324.17444883 -0.30991037 330.84178605 1.53566677 337.68084431 7.32256222 C338.45428181 8.28162472 338.45428181 8.28162472 339.24334431 9.26006222 C340.04771931 10.21912472 340.04771931 10.21912472 340.86834431 11.19756222 C344.21799467 16.22203776 344.50601528 20.64741544 344.36834431 26.57256222 C344.35932087 27.31312862 344.35029743 28.05369503 344.34100056 28.81670284 C344.31758644 30.63129689 344.28172046 32.44572293 344.24334431 34.26006222 C343.58334431 33.27006222 342.92334431 32.28006222 342.24334431 31.26006222 C337.80035903 24.91480173 333.81946807 19.8178601 326.24334431 17.26006222 C323.45739838 16.96117353 323.45739838 16.96117353 320.46548462 17.00279331 C318.72322114 16.99311997 318.72322114 16.99311997 316.94576043 16.98325121 C315.03809993 16.98789702 315.03809993 16.98789702 313.09190083 16.99263668 C311.72385082 16.98889965 310.35580294 16.98429792 308.98775846 16.97890604 C305.22915311 16.96666704 301.47063672 16.96693755 297.71201599 16.96929479 C293.65804761 16.96970273 289.60410784 16.95866598 285.55015278 16.94917965 C277.60787297 16.93256371 269.66562285 16.92706983 261.72332712 16.92595489 C255.26756045 16.92500469 248.81180357 16.9208958 242.35604 16.91455364 C224.05404164 16.89693955 205.75206675 16.88771502 187.45005985 16.88921459 C185.96992926 16.88933446 185.96992926 16.88933446 184.45989704 16.88945675 C182.97795987 16.88957939 182.97795987 16.88957939 181.46608458 16.88970451 C165.45418052 16.89051744 149.44237052 16.87137842 133.43049368 16.84318002 C116.99086964 16.81445669 100.55129148 16.80063942 84.11164171 16.80236757 C74.88152235 16.80303166 65.6515016 16.7975308 56.42140484 16.77601147 C48.56269899 16.75780692 40.70413645 16.75344633 32.84541865 16.76703031 C28.83628995 16.77356369 24.82743623 16.77366404 20.81833363 16.75632381 C17.14609019 16.74060403 13.47434001 16.74344509 9.80210868 16.76089208 C7.84877722 16.76541672 5.89543053 16.750296 3.9421584 16.73441279 C-4.17296284 16.79824373 -9.72302995 17.72536927 -15.99884319 23.22490597 C-20.20038163 28.25888632 -20.20038163 28.25888632 -22.75665569 34.26006222 C-23.08665569 34.26006222 -23.41665569 34.26006222 -23.75665569 34.26006222 C-24.5564593 15.95344629 -24.5564593 15.95344629 -19.75665569 10.26006222 C-13.79479738 4.05350077 -8.86316619 0.01732288 0 0 Z " fill="#176498" transform="translate(95.7566556930542,111.7399377822876)"/>
<path d="M0 0 C121.44 0 242.88 0 368 0 C368 2.64 368 5.28 368 8 C246.56 8 125.12 8 0 8 C0 5.36 0 2.72 0 0 Z " fill="#176599" transform="translate(72,192)"/>
<path d="M0 0 C1.16150898 -0.00644889 2.32301797 -0.01289778 3.51972419 -0.0195421 C4.79149786 -0.01644489 6.06327153 -0.01334769 7.37358379 -0.01015663 C8.7416338 -0.01389366 10.10968167 -0.01849539 11.47772616 -0.02388728 C15.23633151 -0.03612628 18.9948479 -0.03585576 22.75346863 -0.03349853 C26.80743701 -0.03309059 30.86137678 -0.04412733 34.91533184 -0.05361366 C42.85761165 -0.0702296 50.79986177 -0.07572348 58.7421575 -0.07683842 C65.19792417 -0.07778862 71.65368104 -0.08189751 78.10944462 -0.08823967 C96.41144298 -0.10585376 114.71341787 -0.11507829 133.01542477 -0.11357872 C134.00217849 -0.11349881 134.98893222 -0.1134189 136.00558758 -0.11333656 C137.48752475 -0.11321392 137.48752475 -0.11321392 138.99940004 -0.1130888 C155.0113041 -0.11227587 171.02311409 -0.1314149 187.03499094 -0.1596133 C203.47461498 -0.18833662 219.91419314 -0.20215389 236.35384291 -0.20042574 C245.58396227 -0.19976165 254.81398302 -0.20526251 264.04407978 -0.22678185 C271.90278563 -0.24498639 279.76134817 -0.24934698 287.62006596 -0.235763 C291.62919467 -0.22922962 295.63804839 -0.22912927 299.64715099 -0.2464695 C303.31939443 -0.26218929 306.99114461 -0.25934823 310.66337594 -0.24190123 C312.6167074 -0.2373766 314.57005409 -0.25249731 316.52332622 -0.26838052 C324.80591981 -0.2032323 330.31942128 0.79438011 336.68307781 6.44086266 C337.63053875 7.55654625 337.63053875 7.55654625 338.59714031 8.69476891 C339.24424969 9.43597984 339.89135906 10.17719078 340.55807781 10.94086266 C344.2534691 16.08491672 344.42965707 20.13552457 344.22214031 26.25726891 C342.94937749 24.34812467 341.71515382 22.41229141 340.53464031 20.44476891 C336.67990173 15.13148059 332.47988948 11.38985716 326.22214031 9.25726891 C323.43619439 8.95838022 323.43619439 8.95838022 320.44428062 9 C318.70201715 8.99032666 318.70201715 8.99032666 316.92455643 8.9804579 C315.01689593 8.98510371 315.01689593 8.98510371 313.07069683 8.98984337 C311.70264682 8.98610634 310.33459895 8.98150461 308.96655446 8.97611272 C305.20794912 8.96387372 301.44943272 8.96414424 297.69081199 8.96650147 C293.63684362 8.96690941 289.58290385 8.95587267 285.52894878 8.94638634 C277.58666898 8.9297704 269.64441886 8.92427652 261.70212313 8.92316158 C255.24635645 8.92221138 248.79059958 8.91810249 242.33483601 8.91176033 C224.03283765 8.89414624 205.73086275 8.88492171 187.42885586 8.88642128 C185.94872527 8.88654115 185.94872527 8.88654115 184.43869305 8.88666344 C182.95675588 8.88678608 182.95675588 8.88678608 181.44488058 8.8869112 C165.43297652 8.88772413 149.42116653 8.8685851 133.40928968 8.8403867 C116.96966564 8.81166338 100.53008748 8.79784611 84.09043771 8.79957426 C74.86031836 8.80023835 65.63029761 8.79473749 56.40020084 8.77321815 C48.541495 8.75501361 40.68293245 8.75065302 32.82421466 8.764237 C28.81508596 8.77077038 24.80623223 8.77087073 20.79712963 8.7535305 C17.12488619 8.73781071 13.45313601 8.74065177 9.78090469 8.75809877 C7.82757323 8.7626234 5.87422653 8.74750269 3.92095441 8.73161948 C-4.19416683 8.79545041 -9.74423394 9.72257596 -16.02004719 15.22211266 C-20.22158563 20.256093 -20.22158563 20.256093 -22.77785969 26.25726891 C-23.10785969 26.25726891 -23.43785969 26.25726891 -23.77785969 26.25726891 C-24.23208028 19.8981806 -23.57353458 15.48641677 -19.77785969 10.25726891 C-13.86514357 4.01361719 -8.83528913 0.01241901 0 0 Z " fill="#48A1E9" transform="translate(95.77785968780518,127.74273109436035)"/>
<path d="M0 0 C29.04 0 58.08 0 88 0 C88 2.64 88 5.28 88 8 C58.96 8 29.92 8 0 8 C0 5.36 0 2.72 0 0 Z " fill="#00BADF" transform="translate(320,296)"/>
<path d="M0 0 C29.04 0 58.08 0 88 0 C88 2.64 88 5.28 88 8 C58.96 8 29.92 8 0 8 C0 5.36 0 2.72 0 0 Z " fill="#DA5C3B" transform="translate(320,272)"/>
<path d="M0 0 C29.04 0 58.08 0 88 0 C88 2.64 88 5.28 88 8 C58.96 8 29.92 8 0 8 C0 5.36 0 2.72 0 0 Z " fill="#00BADF" transform="translate(320,248)"/>
<path d="M0 0 C7.26 0 14.52 0 22 0 C22 6.93 22 13.86 22 21 C14.74 21 7.48 21 0 21 C0 14.07 0 7.14 0 0 Z " fill="#F1F6FB" transform="translate(357,155)"/>
<path d="M0 0 C18.48 0 36.96 0 56 0 C56 2.64 56 5.28 56 8 C37.52 8 19.04 8 0 8 C0 5.36 0 2.72 0 0 Z " fill="#FFFFFF" transform="translate(144,368)"/>
<path d="M0 0 C18.48 0 36.96 0 56 0 C56 2.64 56 5.28 56 8 C37.52 8 19.04 8 0 8 C0 5.36 0 2.72 0 0 Z " fill="#FFFFFF" transform="translate(144,344)"/>
<path d="M0 0 C18.48 0 36.96 0 56 0 C56 2.64 56 5.28 56 8 C37.52 8 19.04 8 0 8 C0 5.36 0 2.72 0 0 Z " fill="#FFFFFF" transform="translate(144,296)"/>
<path d="M0 0 C18.48 0 36.96 0 56 0 C56 2.64 56 5.28 56 8 C37.52 8 19.04 8 0 8 C0 5.36 0 2.72 0 0 Z " fill="#FFFFFF" transform="translate(144,272)"/>
<path d="M0 0 C18.48 0 36.96 0 56 0 C56 2.64 56 5.28 56 8 C37.52 8 19.04 8 0 8 C0 5.36 0 2.72 0 0 Z " fill="#FFFFFF" transform="translate(144,248)"/>
<path d="M0 0 C15.84 0 31.68 0 48 0 C48 2.64 48 5.28 48 8 C32.16 8 16.32 8 0 8 C0 5.36 0 2.72 0 0 Z " fill="#00935F" transform="translate(320,368)"/>
<path d="M0 0 C15.84 0 31.68 0 48 0 C48 2.64 48 5.28 48 8 C32.16 8 16.32 8 0 8 C0 5.36 0 2.72 0 0 Z " fill="#00BADF" transform="translate(320,344)"/>
<path d="M0 0 C10.56 0 21.12 0 32 0 C32 2.64 32 5.28 32 8 C21.44 8 10.88 8 0 8 C0 5.36 0 2.72 0 0 Z " fill="#00935F" transform="translate(320,320)"/>
<path d="M0 0 C10.56 0 21.12 0 32 0 C32 2.64 32 5.28 32 8 C21.44 8 10.88 8 0 8 C0 5.36 0 2.72 0 0 Z " fill="#DFC15D" transform="translate(144,320)"/>
<path d="M0 0 C10.56 0 21.12 0 32 0 C32 2.64 32 5.28 32 8 C21.44 8 10.88 8 0 8 C0 5.36 0 2.72 0 0 Z " fill="#00935F" transform="translate(320,224)"/>
<path d="M0 0 C10.56 0 21.12 0 32 0 C32 2.64 32 5.28 32 8 C21.44 8 10.88 8 0 8 C0 5.36 0 2.72 0 0 Z " fill="#DFC15D" transform="translate(144,224)"/>
<path d="M0 0 C3.43595166 1.52708963 6.11912454 3.59927045 9 6 C10.98 4.02 12.96 2.04 15 0 C16.65 0.66 18.3 1.32 20 2 C18.55746343 5.36591866 16.66735273 7.51047079 14 10 C15.52708963 13.43595166 17.59927045 16.11912454 20 19 C18.68 19.99 17.36 20.98 16 22 C14.02 20.02 12.04 18.04 10 16 C7.43509874 17.0992434 5.87156808 18.12843192 3.875 20.125 C3.25625 20.74375 2.6375 21.3625 2 22 C1.34 22 0.68 22 0 22 C-0.66 20.35 -1.32 18.7 -2 17 C-0.02 14.69 1.96 12.38 4 10 C2.02 8.02 0.04 6.04 -2 4 C-1.34 2.68 -0.68 1.36 0 0 Z " fill="#F4F8FB" transform="translate(396,154)"/>
<path d="M0 0 C7.92 0 15.84 0 24 0 C24 2.64 24 5.28 24 8 C16.08 8 8.16 8 0 8 C0 5.36 0 2.72 0 0 Z " fill="#FFFFFF" transform="translate(384,368)"/>
<path d="M0 0 C7.92 0 15.84 0 24 0 C24 2.64 24 5.28 24 8 C16.08 8 8.16 8 0 8 C0 5.36 0 2.72 0 0 Z " fill="#FFFFFF" transform="translate(384,344)"/>
<path d="M0 0 C7.92 0 15.84 0 24 0 C24 2.64 24 5.28 24 8 C16.08 8 8.16 8 0 8 C0 5.36 0 2.72 0 0 Z " fill="#DFC15D" transform="translate(280,320)"/>
<path d="M0 0 C7.92 0 15.84 0 24 0 C24 2.64 24 5.28 24 8 C16.08 8 8.16 8 0 8 C0 5.36 0 2.72 0 0 Z " fill="#DA5C3B" transform="translate(104,320)"/>
<path d="M0 0 C7.92 0 15.84 0 24 0 C24 2.64 24 5.28 24 8 C16.08 8 8.16 8 0 8 C0 5.36 0 2.72 0 0 Z " fill="#DFC15D" transform="translate(280,224)"/>
<path d="M0 0 C7.92 0 15.84 0 24 0 C24 2.64 24 5.28 24 8 C16.08 8 8.16 8 0 8 C0 5.36 0 2.72 0 0 Z " fill="#DA5C3B" transform="translate(104,224)"/>
<path d="M0 0 C5.28 0 10.56 0 16 0 C16 2.64 16 5.28 16 8 C10.72 8 5.44 8 0 8 C0 5.36 0 2.72 0 0 Z " fill="#00BADF" transform="translate(216,368)"/>
<path d="M0 0 C5.28 0 10.56 0 16 0 C16 2.64 16 5.28 16 8 C10.72 8 5.44 8 0 8 C0 5.36 0 2.72 0 0 Z " fill="#00BADF" transform="translate(216,344)"/>
<path d="M0 0 C5.28 0 10.56 0 16 0 C16 2.64 16 5.28 16 8 C10.72 8 5.44 8 0 8 C0 5.36 0 2.72 0 0 Z " fill="#00BADF" transform="translate(216,296)"/>
<path d="M0 0 C5.28 0 10.56 0 16 0 C16 2.64 16 5.28 16 8 C10.72 8 5.44 8 0 8 C0 5.36 0 2.72 0 0 Z " fill="#00BADF" transform="translate(216,272)"/>
<path d="M0 0 C5.28 0 10.56 0 16 0 C16 2.64 16 5.28 16 8 C10.72 8 5.44 8 0 8 C0 5.36 0 2.72 0 0 Z " fill="#00BADF" transform="translate(216,248)"/>
<path d="M0 0 C3.3 0 6.6 0 10 0 C10 3.63 10 7.26 10 11 C6.7 11 3.4 11 0 11 C0 7.37 0 3.74 0 0 Z " fill="#2279BE" transform="translate(363,160)"/>
<path d="M0 0 C6.93 0 13.86 0 21 0 C21 1.65 21 3.3 21 5 C14.07 5 7.14 5 0 5 C0 3.35 0 1.7 0 0 Z " fill="#FFFFFF" transform="translate(320,171)"/>
</svg>
