<?xml version="1.0" encoding="UTF-8"?>
<svg version="1.1" xmlns="http://www.w3.org/2000/svg" width="512" height="512">
<path d="M0 0 C1.8856425 -0.00435594 3.77128323 -0.009542 5.65692139 -0.01548767 C10.74392784 -0.0287954 15.83085961 -0.02946547 20.91788006 -0.02692437 C25.18175922 -0.02584885 29.44562362 -0.0307529 33.7094996 -0.03552979 C43.77900071 -0.04659697 53.84846451 -0.0470784 63.91796875 -0.04101562 C74.26588911 -0.03498046 84.61367335 -0.04728171 94.9615705 -0.06858569 C103.88177847 -0.08626728 112.80194338 -0.09219268 121.72216821 -0.08894795 C127.03390984 -0.08714507 132.34555439 -0.08967081 137.65727997 -0.10366249 C142.65774266 -0.11634315 147.65799501 -0.11420111 152.6584549 -0.1012516 C154.47996597 -0.09890822 156.30149233 -0.10153876 158.12298584 -0.10987473 C196.38563704 -0.27217623 229.60232582 13.8367684 257.98535156 39.2746582 C258.77554687 39.97977539 259.56574219 40.68489258 260.37988281 41.41137695 C271.41207402 51.8472335 280.02285056 64.86315954 286.98535156 78.2746582 C287.58992188 79.4193457 288.19449219 80.5640332 288.81738281 81.7434082 C292.45238902 88.89663722 295.06561691 96.19589476 297.29785156 103.8996582 C297.54035645 104.73376221 297.78286133 105.56786621 298.03271484 106.42724609 C301.12492933 117.66739113 302.28524149 128.78186651 302.26000977 140.41430664 C302.26767616 142.27813995 302.26767616 142.27813995 302.27549744 144.17962646 C302.28691416 147.54774147 302.28948337 150.91560818 302.28693414 154.28372478 C302.28585353 157.11605779 302.29077548 159.94836887 302.29553956 162.78069711 C302.30658241 169.47499036 302.30710227 176.16922747 302.30102539 182.86352539 C302.29499471 189.72145212 302.30728559 196.57917321 302.32859546 203.43706489 C302.34633279 209.36791766 302.35219376 215.29870572 302.34895772 221.22958398 C302.34716335 224.75282159 302.34959233 228.2759126 302.36367226 231.79912567 C302.41646427 246.24987362 302.39523151 260.16767637 298.98535156 274.2746582 C298.81282553 274.98882967 298.64029949 275.70300114 298.46254539 276.43881416 C289.68412231 312.50035178 265.87423916 343.45039058 234.86035156 363.3371582 C209.97256183 378.10868808 184.80170769 384.59367079 155.97070312 384.54931641 C154.08506063 384.55367234 152.19941989 384.55885841 150.31378174 384.56480408 C145.22677529 384.57811181 140.13984351 384.57878187 135.05282307 384.57624078 C130.78894391 384.57516526 126.5250795 384.5800693 122.26120353 384.5848462 C112.19170242 384.59591338 102.12223861 384.59639481 92.05273438 384.59033203 C81.70481401 384.58429687 71.35702977 384.59659811 61.00913262 384.6179021 C52.08892465 384.63558369 43.16875975 384.64150908 34.24853492 384.63826436 C28.93679329 384.63646148 23.62514873 384.63898721 18.31342316 384.6529789 C13.31296047 384.66565955 8.31270812 384.66351751 3.31224823 384.65056801 C1.49073715 384.64822463 -0.33078921 384.65085516 -2.15228271 384.65919113 C-40.41493391 384.82149264 -73.6316227 370.71254801 -102.01464844 345.2746582 C-102.80484375 344.56954102 -103.59503906 343.86442383 -104.40917969 343.13793945 C-115.4413709 332.7020829 -124.05214744 319.68615687 -131.01464844 306.2746582 C-131.61921875 305.1299707 -132.22378906 303.9852832 -132.84667969 302.8059082 C-136.4816859 295.65267919 -139.09491378 288.35342164 -141.32714844 280.6496582 C-141.56965332 279.8155542 -141.8121582 278.9814502 -142.06201172 278.12207031 C-145.15422621 266.88192527 -146.31453836 255.76744989 -146.28930664 244.13500977 C-146.29441757 242.89245422 -146.2995285 241.64989868 -146.30479431 240.36968994 C-146.31621103 237.00157494 -146.31878025 233.63370823 -146.31623101 230.26559162 C-146.3151504 227.43325862 -146.32007235 224.60094753 -146.32483643 221.7686193 C-146.33587928 215.07432605 -146.33639914 208.38008893 -146.33032227 201.68579102 C-146.32429158 194.82786429 -146.33658246 187.9701432 -146.35789233 181.11225152 C-146.37562967 175.18139874 -146.38149064 169.25061068 -146.37825459 163.31973243 C-146.37646022 159.79649482 -146.3788892 156.2734038 -146.39296913 152.75019073 C-146.44576114 138.29944278 -146.42452839 124.38164003 -143.01464844 110.2746582 C-142.75585938 109.203401 -142.75585938 109.203401 -142.49184227 108.11050224 C-136.54154659 83.66683973 -123.65450558 62.84103683 -107.01464844 44.2746582 C-106.30953125 43.48446289 -105.60441406 42.69426758 -104.87792969 41.88012695 C-94.44207314 30.84793574 -81.42614711 22.2371592 -68.01464844 15.2746582 C-66.29761719 14.36780273 -66.29761719 14.36780273 -64.54589844 13.44262695 C-57.39266942 9.80762074 -50.09341188 7.19439286 -42.38964844 4.9621582 C-41.55554443 4.71965332 -40.72144043 4.47714844 -39.86206055 4.22729492 C-26.58431791 0.57452816 -13.66664978 -0.02102514 0 0 Z M-79.32714844 136.2121582 C-82.40688808 141.80131534 -82.16773666 147.28306073 -82.17578125 153.51196289 C-82.18074615 154.43457916 -82.18571106 155.35719543 -82.19082642 156.30776978 C-82.20540728 159.3540319 -82.21224349 162.40024194 -82.21777344 165.4465332 C-82.22352852 167.57017009 -82.22928621 169.69380697 -82.23504639 171.81744385 C-82.24554498 176.26933025 -82.25139503 180.72119866 -82.25488281 185.1730957 C-82.26036314 190.86350193 -82.2843863 196.55366837 -82.31285477 202.24399948 C-82.33152555 206.63133427 -82.33668913 211.01861182 -82.33821869 215.40598297 C-82.34123603 217.50303711 -82.34923338 219.60009046 -82.36240387 221.69710541 C-82.37955614 224.63817829 -82.37756163 227.57867209 -82.37109375 230.51977539 C-82.38030853 231.37723358 -82.38952332 232.23469177 -82.39901733 233.11813354 C-82.35714489 239.23007233 -81.79930295 246.14884553 -77.56267166 250.90452194 C-72.80814788 254.94938472 -69.620481 255.63067765 -63.55371094 255.55200195 C-59.79004441 255.14089376 -57.79674656 253.7917946 -55.01464844 251.2746582 C-50.68351379 245.77294662 -49.91564914 241.32484655 -49.80932617 234.47460938 C-49.78938095 233.33380417 -49.76943573 232.19299896 -49.74888611 231.0176239 C-49.73217361 229.79662491 -49.71546112 228.57562592 -49.69824219 227.31762695 C-49.67746109 226.05952713 -49.65667999 224.80142731 -49.63526917 223.50520325 C-49.58104379 220.17293535 -49.53076899 216.84065581 -49.48242188 213.50830078 C-49.4320376 210.10289265 -49.37644021 206.69757 -49.32128906 203.29223633 C-49.21428144 196.61977853 -49.1124832 189.94725646 -49.01464844 183.2746582 C-48.31387177 183.98209671 -48.31387177 183.98209671 -47.59893799 184.7038269 C-42.7383524 189.60863722 -37.87075869 194.50641099 -32.99902344 199.40014648 C-31.18145718 201.22777427 -29.36568948 203.05719254 -27.55175781 204.88842773 C-24.94513446 207.51929211 -22.33212483 210.14366353 -19.71777344 212.7668457 C-18.50193573 213.99816727 -18.50193573 213.99816727 -17.26153564 215.25436401 C-16.50104919 216.01500153 -15.74056274 216.77563904 -14.95703125 217.55932617 C-14.29084778 218.22995087 -13.62466431 218.90057556 -12.93829346 219.59152222 C-9.504723 222.59580104 -6.67252031 223.57905272 -2.13964844 223.6496582 C-1.31722656 223.67801758 -0.49480469 223.70637695 0.35253906 223.7355957 C7.46471118 222.49043797 12.60879619 215.9125355 17.44628906 211.0090332 C18.63214096 209.81893646 18.63214096 209.81893646 19.84194946 208.60479736 C22.35283832 206.08276059 24.8566628 203.55384082 27.36035156 201.0246582 C29.06692045 199.30805258 30.77394678 197.59190161 32.48144531 195.8762207 C36.65472634 191.68095081 40.82223724 187.48001576 44.98535156 183.2746582 C44.9912178 183.96877304 44.99708405 184.66288788 45.00312805 185.3780365 C45.06128823 191.95356414 45.13349605 198.52877482 45.22106647 205.10398006 C45.26559185 208.48352054 45.30488562 211.86294542 45.33178711 215.24267578 C45.36548271 219.13774431 45.41780861 223.03219523 45.47363281 226.92700195 C45.48002274 228.1273558 45.48641266 229.32770966 45.49299622 230.56443787 C45.58084199 241.46157785 45.58084199 241.46157785 50.4367218 250.89048767 C55.17319519 254.95973588 58.38368182 255.63062366 64.44628906 255.55200195 C68.20995559 255.14089376 70.20325344 253.7917946 72.98535156 251.2746582 C78.12623191 244.74435074 78.13620168 238.99921495 78.14648438 231.03735352 C78.15144928 230.11473724 78.15641418 229.19212097 78.16152954 228.24154663 C78.17611041 225.1952845 78.18294661 222.14907447 78.18847656 219.1027832 C78.19423165 216.97914631 78.19998934 214.85550943 78.20574951 212.73187256 C78.2162481 208.27998615 78.22209815 203.82811774 78.22558594 199.3762207 C78.23106626 193.68581447 78.25508942 187.99564804 78.28355789 182.30531693 C78.30222867 177.91798214 78.30739225 173.53070459 78.30892181 169.14333344 C78.31193916 167.0462793 78.31993651 164.94922595 78.33310699 162.852211 C78.35025926 159.91113812 78.34826476 156.97064432 78.34179688 154.02954102 C78.35561905 152.74335373 78.35561905 152.74335373 78.36972046 151.43118286 C78.32784801 145.31924407 77.77000607 138.40047088 73.53337479 133.64479446 C69.74723556 130.423775 67.12346874 129.10287673 62.23535156 128.9621582 C61.39488281 128.92477539 60.55441406 128.88739258 59.68847656 128.84887695 C53.79531288 129.77713539 49.59252582 134.42061969 45.53076172 138.50219727 C44.76866898 139.26385193 44.76866898 139.26385193 43.99118042 140.04089355 C42.3308001 141.70265538 40.67759703 143.37136371 39.02441406 145.0402832 C37.86757518 146.20085641 36.71029084 147.36098574 35.55258179 148.52069092 C32.51997892 151.56089718 29.49343288 154.60706323 26.46813965 157.65454102 C23.37467171 160.76853857 20.27547071 163.87681888 17.17675781 166.9855957 C11.10735341 173.07639187 5.04434035 179.1735008 -1.01464844 185.2746582 C-4.86369722 183.69245824 -7.27296206 181.24536646 -10.17871094 178.3059082 C-10.68005554 177.80164307 -11.18140015 177.29737793 -11.69793701 176.77783203 C-12.7826918 175.68548342 -13.8651304 174.59083086 -14.94549561 173.49414062 C-16.65603832 171.75802327 -18.37279333 170.02827254 -20.09130859 168.30004883 C-24.35732982 164.00731392 -28.61241515 159.70379042 -32.86791992 155.40063477 C-36.4665422 151.76255078 -40.06922819 148.12858489 -43.6774292 144.5 C-45.36770792 142.79676688 -47.05184407 141.08761587 -48.73583984 139.37817383 C-49.77379105 138.33295645 -50.81202472 137.28801946 -51.85058594 136.2434082 C-52.75341309 135.33010742 -53.65624023 134.41680664 -54.58642578 133.47583008 C-59.11634025 129.36948493 -62.56684016 128.82147448 -68.54589844 128.9621582 C-73.66032691 129.60955421 -76.25159605 132.30537544 -79.32714844 136.2121582 Z M162.98535156 133.2746582 C158.48078725 138.99667233 157.87835829 143.59545639 157.7800293 150.71728516 C157.76008408 151.99823563 157.74013885 153.2791861 157.71958923 154.59895325 C157.70260878 155.98694744 157.68572983 157.37494288 157.66894531 158.76293945 C157.64835732 160.19069496 157.62736038 161.61844461 157.60597229 163.04618835 C157.55094203 166.79272715 157.50144929 170.53931921 157.453125 174.28594971 C157.40277035 178.11361395 157.34715738 181.94120143 157.29199219 185.76879883 C157.1846438 193.27068684 157.0831477 200.77263894 156.98535156 208.2746582 C155.96344727 207.52265137 154.94154297 206.77064453 153.88867188 205.99584961 C152.53030241 204.99760055 151.17190235 203.99939311 149.81347656 203.0012207 C149.14203613 202.5069458 148.4705957 202.0126709 147.77880859 201.50341797 C136.16291962 192.29670949 136.16291962 192.29670949 121.98535156 190.2746582 C116.63794742 192.22851741 113.52917013 195.18702107 110.98535156 200.2746582 C110.58243929 204.65245504 110.4419524 208.81427296 111.98535156 212.9621582 C117.73947941 219.61536853 124.96358196 224.49493124 132.23535156 229.3371582 C134.17754154 230.64458848 136.11892903 231.95321153 138.05957031 233.26293945 C139.03974121 233.92374512 140.01991211 234.58455078 141.02978516 235.26538086 C146.58370745 239.04109377 152.06741402 242.91724582 157.55078125 246.79443359 C164.75169556 252.46443093 164.75169556 252.46443093 173.29785156 254.7121582 C174.34392578 254.74116211 174.34392578 254.74116211 175.41113281 254.77075195 C182.84629653 253.33787518 189.49704984 248.1218824 195.67285156 243.9699707 C196.57479248 243.36837128 197.4767334 242.76677185 198.40600586 242.14694214 C200.30338501 240.8800184 202.19927715 239.61086512 204.09375 238.33959961 C206.9733749 236.40769321 209.85784187 234.48319874 212.74316406 232.55981445 C214.59501703 231.32196764 216.44658893 230.08370022 218.29785156 228.8449707 C219.15016357 228.27602081 220.00247559 227.70707092 220.88061523 227.12088013 C232.57940462 220.10126478 232.57940462 220.10126478 239.98535156 209.2746582 C240.42655481 203.98021921 240.25260311 200.32046739 237.30566406 195.81762695 C234.45970295 192.49172566 231.26542826 190.61443856 226.91455078 189.96606445 C220.79726151 189.78031957 217.25754871 191.24702408 212.29785156 194.7121582 C211.69263672 195.11370117 211.08742188 195.51524414 210.46386719 195.92895508 C209.13616568 196.81005385 207.81368156 197.69904858 206.49560547 198.59448242 C203.17990706 200.81376237 199.8241407 202.96825983 196.46582031 205.12231445 C195.83074051 205.52969345 195.19566071 205.93707245 194.54133606 206.35679626 C193.02306502 207.33002631 191.50426473 208.30243063 189.98535156 209.2746582 C189.9920134 208.48031876 189.99867523 207.68597931 190.00553894 206.86756897 C190.06586288 199.35044123 190.11143345 191.83343228 190.14078808 184.31612492 C190.15638736 180.45218062 190.17751941 176.58843777 190.21166992 172.72460938 C190.2444699 168.98984763 190.26224763 165.2552786 190.26998329 161.52038383 C190.27549004 160.1015463 190.28624262 158.6827183 190.30254173 157.2639637 C190.78552936 144.6688083 190.78552936 144.6688083 185.53312683 133.66566467 C180.8072807 129.58333001 177.58394696 128.91873261 171.52441406 128.99731445 C167.76074754 129.40842264 165.76744969 130.7575218 162.98535156 133.2746582 Z " fill="#5132FF" transform="translate(178.0146484375,63.725341796875)"/>
</svg>
